name rise30.9205peak61.366fall85.3838.mot
datacolumns 19
datarows 33
range 18.63160400000000 18.68492600000000
endheader
time	ground_force1_vx	ground_force1_vy	ground_force1_vz	ground_force1_px	ground_force1_py	ground_force1_pz	ground_force2_vx	ground_force2_vy	ground_force2_vz	ground_force2_px	ground_force2_py	ground_force2_pz	ground_torque1_x	ground_torque1_y	ground_torque1_z	ground_torque2_x	ground_torque2_y	ground_torque2_z	
18.63160400000000	63.79146500000000	775.58124699999996	55.92959000000000	0.34627300000000	0.00000000000000	0.11449000000000	0.00000000000000	0.00000000000000	0.00000000000000	0.00000000000000	0.00000000000000	0.00000000000000	0.00000000000000	23.41453000000000	0.00000000000000	0.00000000000000	0.00000000000000	0.00000000000000	
18.63326500000000	63.14127600000000	777.74976900000001	55.95267800000000	0.34527800000000	0.00000000000000	0.11446500000000	0.00000000000000	0.00000000000000	0.00000000000000	0.00000000000000	0.00000000000000	0.00000000000000	0.00000000000000	23.44230500000000	0.00000000000000	0.00000000000000	0.00000000000000	0.00000000000000	
18.63493200000000	62.49334800000000	779.81057799999996	55.97271500000000	0.34430000000000	0.00000000000000	0.11444100000000	0.00000000000000	0.00000000000000	0.00000000000000	0.00000000000000	0.00000000000000	0.00000000000000	0.00000000000000	23.46940700000000	0.00000000000000	0.00000000000000	0.00000000000000	0.00000000000000	
18.63660800000000	61.84793000000000	781.76243599999998	55.98932900000000	0.34333600000000	0.00000000000000	0.11441800000000	0.00000000000000	0.00000000000000	0.00000000000000	0.00000000000000	0.00000000000000	0.00000000000000	0.00000000000000	23.49556400000000	0.00000000000000	0.00000000000000	0.00000000000000	0.00000000000000	
18.63826100000000	61.20520400000000	783.60417299999995	56.00210700000000	0.34238800000000	0.00000000000000	0.11439500000000	0.00000000000000	0.00000000000000	0.00000000000000	0.00000000000000	0.00000000000000	0.00000000000000	0.00000000000000	23.52048400000000	0.00000000000000	0.00000000000000	0.00000000000000	0.00000000000000	
18.63993100000000	60.56529700000000	785.33469400000001	56.01060100000000	0.34145200000000	0.00000000000000	0.11437200000000	0.00000000000000	0.00000000000000	0.00000000000000	0.00000000000000	0.00000000000000	0.00000000000000	0.00000000000000	23.54384900000000	0.00000000000000	0.00000000000000	0.00000000000000	0.00000000000000	
18.64159700000000	59.92827700000000	786.95299599999998	56.01432900000000	0.34053000000000	0.00000000000000	0.11435000000000	0.00000000000000	0.00000000000000	0.00000000000000	0.00000000000000	0.00000000000000	0.00000000000000	0.00000000000000	23.56532600000000	0.00000000000000	0.00000000000000	0.00000000000000	0.00000000000000	
18.64326600000000	59.29416300000000	788.45817299999999	56.01278300000000	0.33961800000000	0.00000000000000	0.11432800000000	0.00000000000000	0.00000000000000	0.00000000000000	0.00000000000000	0.00000000000000	0.00000000000000	0.00000000000000	23.58456800000000	0.00000000000000	0.00000000000000	0.00000000000000	0.00000000000000	
18.64493300000000	58.66292600000000	789.84943099999998	56.00543800000000	0.33871700000000	0.00000000000000	0.11430700000000	0.00000000000000	0.00000000000000	0.00000000000000	0.00000000000000	0.00000000000000	0.00000000000000	0.00000000000000	23.60121500000000	0.00000000000000	0.00000000000000	0.00000000000000	0.00000000000000	
18.64659300000000	58.03449200000000	791.12609099999997	55.99175300000000	0.33782600000000	0.00000000000000	0.11428500000000	0.00000000000000	0.00000000000000	0.00000000000000	0.00000000000000	0.00000000000000	0.00000000000000	0.00000000000000	23.61490200000000	0.00000000000000	0.00000000000000	0.00000000000000	0.00000000000000	
18.64826200000000	57.40875000000000	792.28760199999999	55.97118000000000	0.33694200000000	0.00000000000000	0.11426500000000	0.00000000000000	0.00000000000000	0.00000000000000	0.00000000000000	0.00000000000000	0.00000000000000	0.00000000000000	23.62525900000000	0.00000000000000	0.00000000000000	0.00000000000000	0.00000000000000	
18.64993000000000	56.78555400000000	793.33354699999995	55.94317000000000	0.33606500000000	0.00000000000000	0.11424400000000	0.00000000000000	0.00000000000000	0.00000000000000	0.00000000000000	0.00000000000000	0.00000000000000	0.00000000000000	23.63191600000000	0.00000000000000	0.00000000000000	0.00000000000000	0.00000000000000	
18.65160000000000	56.16473000000000	794.26365399999997	55.90717700000000	0.33519400000000	0.00000000000000	0.11422300000000	0.00000000000000	0.00000000000000	0.00000000000000	0.00000000000000	0.00000000000000	0.00000000000000	0.00000000000000	23.63450500000000	0.00000000000000	0.00000000000000	0.00000000000000	0.00000000000000	
18.65326200000000	55.54607700000000	795.07779600000003	55.86266500000000	0.33432700000000	0.00000000000000	0.11420300000000	0.00000000000000	0.00000000000000	0.00000000000000	0.00000000000000	0.00000000000000	0.00000000000000	0.00000000000000	23.63266400000000	0.00000000000000	0.00000000000000	0.00000000000000	0.00000000000000	
18.65492800000000	54.92937100000000	795.77600199999995	55.80911500000000	0.33346300000000	0.00000000000000	0.11418300000000	0.00000000000000	0.00000000000000	0.00000000000000	0.00000000000000	0.00000000000000	0.00000000000000	0.00000000000000	23.62604400000000	0.00000000000000	0.00000000000000	0.00000000000000	0.00000000000000	
18.65660000000000	54.31437700000000	796.35846300000003	55.74602700000000	0.33260000000000	0.00000000000000	0.11416300000000	0.00000000000000	0.00000000000000	0.00000000000000	0.00000000000000	0.00000000000000	0.00000000000000	0.00000000000000	23.61430400000000	0.00000000000000	0.00000000000000	0.00000000000000	0.00000000000000	
18.65826100000000	53.70084200000000	796.82552999999996	55.67292800000000	0.33173800000000	0.00000000000000	0.11414300000000	0.00000000000000	0.00000000000000	0.00000000000000	0.00000000000000	0.00000000000000	0.00000000000000	0.00000000000000	23.59712100000000	0.00000000000000	0.00000000000000	0.00000000000000	0.00000000000000	
18.65993100000000	53.08851000000000	797.17772500000001	55.58937500000000	0.33087400000000	0.00000000000000	0.11412300000000	0.00000000000000	0.00000000000000	0.00000000000000	0.00000000000000	0.00000000000000	0.00000000000000	0.00000000000000	23.57419100000000	0.00000000000000	0.00000000000000	0.00000000000000	0.00000000000000	
18.66159900000000	52.47711800000000	797.41574000000003	55.49496200000000	0.33000800000000	0.00000000000000	0.11410300000000	0.00000000000000	0.00000000000000	0.00000000000000	0.00000000000000	0.00000000000000	0.00000000000000	0.00000000000000	23.54523100000000	0.00000000000000	0.00000000000000	0.00000000000000	0.00000000000000	
18.66326300000000	51.86640400000000	797.54043700000000	55.38932000000000	0.32913900000000	0.00000000000000	0.11408300000000	0.00000000000000	0.00000000000000	0.00000000000000	0.00000000000000	0.00000000000000	0.00000000000000	0.00000000000000	23.50998000000000	0.00000000000000	0.00000000000000	0.00000000000000	0.00000000000000	
18.66492700000000	51.25611100000000	797.55285500000002	55.27212500000000	0.32826400000000	0.00000000000000	0.11406300000000	0.00000000000000	0.00000000000000	0.00000000000000	0.00000000000000	0.00000000000000	0.00000000000000	0.00000000000000	23.46820600000000	0.00000000000000	0.00000000000000	0.00000000000000	0.00000000000000	
18.66660300000000	50.64598700000000	797.45420400000000	55.14310200000000	0.32738200000000	0.00000000000000	0.11404300000000	0.00000000000000	0.00000000000000	0.00000000000000	0.00000000000000	0.00000000000000	0.00000000000000	0.00000000000000	23.41970100000000	0.00000000000000	0.00000000000000	0.00000000000000	0.00000000000000	
18.66826400000000	50.03579500000000	797.24586899999997	55.00202200000000	0.32649300000000	0.00000000000000	0.11402200000000	0.00000000000000	0.00000000000000	0.00000000000000	0.00000000000000	0.00000000000000	0.00000000000000	0.00000000000000	23.36429100000000	0.00000000000000	0.00000000000000	0.00000000000000	0.00000000000000	
18.66993000000000	49.42530800000000	796.92940699999997	54.84871200000000	0.32559500000000	0.00000000000000	0.11400200000000	0.00000000000000	0.00000000000000	0.00000000000000	0.00000000000000	0.00000000000000	0.00000000000000	0.00000000000000	23.30183200000000	0.00000000000000	0.00000000000000	0.00000000000000	0.00000000000000	
18.67159300000000	48.81431700000000	796.50654499999996	54.68305400000000	0.32468700000000	0.00000000000000	0.11398200000000	0.00000000000000	0.00000000000000	0.00000000000000	0.00000000000000	0.00000000000000	0.00000000000000	0.00000000000000	23.23221200000000	0.00000000000000	0.00000000000000	0.00000000000000	0.00000000000000	
18.67326200000000	48.20263500000000	795.97917900000004	54.50498500000000	0.32376800000000	0.00000000000000	0.11396200000000	0.00000000000000	0.00000000000000	0.00000000000000	0.00000000000000	0.00000000000000	0.00000000000000	0.00000000000000	23.15535500000000	0.00000000000000	0.00000000000000	0.00000000000000	0.00000000000000	
18.67493100000000	47.59009400000000	795.34936800000003	54.31450000000000	0.32283700000000	0.00000000000000	0.11394100000000	0.00000000000000	0.00000000000000	0.00000000000000	0.00000000000000	0.00000000000000	0.00000000000000	0.00000000000000	23.07121800000000	0.00000000000000	0.00000000000000	0.00000000000000	0.00000000000000	
18.67659700000000	46.97655200000000	794.61933199999999	54.11165700000000	0.32189200000000	0.00000000000000	0.11392100000000	0.00000000000000	0.00000000000000	0.00000000000000	0.00000000000000	0.00000000000000	0.00000000000000	0.00000000000000	22.97979400000000	0.00000000000000	0.00000000000000	0.00000000000000	0.00000000000000	
18.67826200000000	46.36189400000000	793.79144699999995	53.89657000000000	0.32093200000000	0.00000000000000	0.11390000000000	0.00000000000000	0.00000000000000	0.00000000000000	0.00000000000000	0.00000000000000	0.00000000000000	0.00000000000000	22.88111300000000	0.00000000000000	0.00000000000000	0.00000000000000	0.00000000000000	
18.67993300000000	45.74602900000000	792.86823700000002	53.66941300000000	0.31995800000000	0.00000000000000	0.11388000000000	0.00000000000000	0.00000000000000	0.00000000000000	0.00000000000000	0.00000000000000	0.00000000000000	0.00000000000000	22.77524000000000	0.00000000000000	0.00000000000000	0.00000000000000	0.00000000000000	
18.68160600000000	45.12889900000000	791.85237400000005	53.43042000000000	0.31896700000000	0.00000000000000	0.11385900000000	0.00000000000000	0.00000000000000	0.00000000000000	0.00000000000000	0.00000000000000	0.00000000000000	0.00000000000000	22.66227400000000	0.00000000000000	0.00000000000000	0.00000000000000	0.00000000000000	
18.68326800000000	44.51047600000000	790.74666500000001	53.17988300000000	0.31796000000000	0.00000000000000	0.11383800000000	0.00000000000000	0.00000000000000	0.00000000000000	0.00000000000000	0.00000000000000	0.00000000000000	0.00000000000000	22.54235100000000	0.00000000000000	0.00000000000000	0.00000000000000	0.00000000000000	
18.68492600000000	43.89076100000000	789.55405099999996	52.91815100000000	0.31693500000000	0.00000000000000	0.11381800000000	0.00000000000000	0.00000000000000	0.00000000000000	0.00000000000000	0.00000000000000	0.00000000000000	0.00000000000000	22.41564000000000	0.00000000000000	0.00000000000000	0.00000000000000	0.00000000000000	
